<?xml version="1.0" standalone="no"?><!DOCTYPE svg PUBLIC "-//W3C//DTD SVG 1.1//EN" "http://www.w3.org/Graphics/SVG/1.1/DTD/svg11.dtd"><svg t="1693377184617" class="icon" viewBox="0 0 1435 1024" version="1.1" xmlns="http://www.w3.org/2000/svg" p-id="1990" xmlns:xlink="http://www.w3.org/1999/xlink" width="280.2734375" height="200"><path d="M684.365519 109.153665c-145.208157-213.065157-406.792526-86.641449-367.12676 142.936549-206.046472-128.637069-412.122067 71.788629-270.408691 286.455562 77.817127 117.919741 219.938227 86.175479 326.412559 82.768067 103.270783-3.320042 196.756179 24.143113 222.646682 45.228293-10.484343-30.666705 4.31023-133.296778 41.121925-223.957225C677.259464 343.391371 763.87179 225.908478 684.365519 109.153665L684.365519 109.153665z" fill="#1296db" p-id="1991"></path><path d="M1076.53821 542.681266c-36.462217-240.091465-322.772162-266.098461-393.541481-18.813572-38.87944 135.801371 77.729757 223.054407 149.63488 301.628736 69.720884 76.302722 109.765251 165.186656 110.5807 198.503569 16.425471-27.841756 103.969739-83.4379 196.814425-114.512329 101.494269-33.986747 246.993658-44.674952 283.921845-181.058787C1491.223117 479.54222 1225.008162 363.166008 1076.53821 542.681266L1076.53821 542.681266z" fill="#1296db" p-id="1992"></path><path d="M917.263559 124.501578c6.843946-84.457211-88.243224-116.143227-132.073604-37.860129-24.02662 43.014931 8.562214 81.952618 26.676829 114.366713 17.590398 31.482154 24.055744 64.82819 21.696766 76.244475 7.775888-8.183613 41.937374-20.036745 75.953244-23.182048 37.161173-3.407412 87.398652 4.601462 110.842809-38.762948C1063.112426 136.179972 982.033503 75.399903 917.263559 124.501578L917.263559 124.501578z" fill="#1296db" p-id="1993"></path><path d="M565.018742 816.555616c-11.64927-22.308353-15.49353-45.66514-13.629646-53.557521-5.59165 5.533403-29.647393 13.134552-53.382782 14.648958-26.006996 1.689144-60.838315-4.892694-78.020989 24.871193-31.307414 54.285601 24.02662 98.261597 70.099485 65.294161-6.407099 58.77057 59.23654 82.680697 91.301158 28.97756C598.976366 867.317312 577.017491 839.533802 565.018742 816.555616L565.018742 816.555616z" fill="#1296db" p-id="1994"></path></svg>